<svg xmlns="http://www.w3.org/2000/svg" width="24" height="24" viewBox="0 0 24 24" fill="none" stroke="#3b82f6" stroke-width="2" stroke-linecap="round" stroke-linejoin="round">
  <path d="m7 16.3c2.2 0 4-1.83 4-4.05 0-1.16-.57-2.26-1.71-3.19S7.29 6.75 7 5.3c-.29 1.45-1.14 2.84-2.29 3.76S3 11.1 3 12.25c0 2.22 1.8 4.05 4 4.05z"/>
  <path d="M12.56 6.6A10.97 10.97 0 0 0 14 3.02c.5 2.5 2.04 4.6 4.14 5.93c2.1 1.33 3.86 2.97 3.86 5.25a6 6 0 0 1-7 5.92c5.7-2.13 4.83-6.49 3.5-8.5a11.72 11.72 0 0 0-5.94-5.02z"/>
  <circle cx="7" cy="12" r="1"/>
</svg>